<svg id="Layer_1" data-name="Layer 1" xmlns="http://www.w3.org/2000/svg" xmlns:xlink="http://www.w3.org/1999/xlink" viewBox="0 0 232.2 191.5"><defs><style>.cls-1{fill:#9a744c;}.cls-2{fill:#cc9a65;}.cls-3{fill:#b88a60;}.cls-4{fill:#d6ae83;}.cls-5{fill:#332719;}</style><symbol id="parcel_closed" data-name="parcel closed" viewBox="0 0 232.2 191.5"><polygon class="cls-1" points="0 159.52 115.92 191.5 115.92 57.78 0 25.8 0 159.52"/><polygon class="cls-1" points="231.47 26 115.92 0 0.55 25.62 115.92 57.41 181.1 39.89 116.28 57.78 116.28 191.5 232.2 159.52 232.2 25.8 231.47 26"/><polygon class="cls-2" points="115.92 191.5 0 159.52 0 25.8 115.92 57.78 115.92 191.5"/><polygon class="cls-3" points="116.28 191.5 232.2 159.52 232.2 25.8 116.28 57.78 116.28 191.5"/><polygon class="cls-4" points="0.55 25.62 115.92 0 232.2 26.16 115.92 57.41 0.55 25.62"/><polygon class="cls-5" points="46.35 104.5 47.35 38.5 155.35 8.5 180.35 14.5 70.35 44.5 67.35 108.5 46.35 104.5"/></symbol></defs><use width="232.2" height="191.5" transform="translate(0 0)" xlink:href="#parcel_closed"/></svg>